Coordinates
version=1
nRows=23
nColumns=23
inDegrees=yes

Units are S.I. units (second, meters, Newtons, ...)
If the header above contains a line with 'inDegrees', this indicates whether rotational values are in degrees (yes) or radians (no).

endheader
time	pelvis_tilt	pelvis_list	pelvis_rotation	pelvis_tx	pelvis_ty	pelvis_tz	hip_flexion_r	hip_adduction_r	hip_rotation_r	knee_angle_r	knee_angle_r_beta	ankle_angle_r	subtalar_angle_r	mtp_angle_r	hip_flexion_l	hip_adduction_l	hip_rotation_l	knee_angle_l	knee_angle_l_beta	ankle_angle_l	subtalar_angle_l	mtp_angle_l
     22.50000000	     -9.20637648	      7.93110939	      1.18032851	      2.39539161	      1.02948458	      1.04896182	    -14.17804166	     -7.57653347	     -5.79263938	     58.68407187	      1.02423027	    -17.11306727	      2.42059171	      0.00000000	     38.98100185	      8.19886044	    -22.63936021	     19.64430921	      0.34285788	      1.09121528	      3.27534625	      0.00000000
     22.50666667	     -8.83165669	      8.28816935	      1.70651319	      2.39523741	      1.02653676	      1.04885869	    -13.44123725	     -7.97309241	     -6.11626972	     62.82659680	      1.09653097	    -17.32131340	      1.54656588	      0.00000000	     38.19049705	      8.93451789	    -22.91323308	     19.82539731	      0.34601846	      0.81883103	      3.22584206	      0.00000000
     22.51333333	     -8.45965974	      8.69332543	      2.34666128	      2.39487594	      1.02320253	      1.04870877	    -12.63381857	     -8.46710656	     -6.63393554	     66.98121753	      1.16904278	    -17.43816388	      0.62675404	      0.00000000	     37.53603062	      9.62555463	    -23.19223539	     20.81116272	      0.36322331	      0.66617181	      2.88625790	      0.00000000
     22.52000000	     -8.03677635	      9.12550907	      3.09697305	      2.39433539	      1.01955863	      1.04852785	    -11.83655704	     -9.00908051	     -7.28116984	     71.08949712	      1.24074579	    -17.43499394	     -0.46054808	      0.00000000	     36.92612545	     10.27270447	    -23.39340546	     22.50790284	      0.39283701	      0.72582984	      2.34849379	      0.00000000
     22.52666667	     -8.10196177	      9.36015900	      3.84364485	      2.39341571	      1.01497995	      1.04845685	    -10.31020462	     -9.37323065	     -7.68343639	     75.30679520	      1.31435153	    -17.25509178	     -1.70807341	      0.00000000	     36.97871938	     10.58237327	    -23.55428046	     24.92777144	      0.43507169	      1.17254215	      1.79259597	      0.00000000
     22.53333333	     -7.67784066	      9.84744149	      4.58050219	      2.39248149	      1.01080772	      1.04829871	     -9.33664427	    -10.11593389	     -8.28870540	     79.34318741	      1.38479986	    -16.94655130	     -2.94619488	      0.00000000	     36.41027841	     11.21507337	    -23.37001034	     27.47170751	      0.47947175	      2.02509079	      0.85562506	      0.00000000
     22.54000000	     -7.94863543	      9.93238023	      5.34219047	      2.39102002	      1.00564750	      1.04818765	     -7.33870002	    -10.46151814	     -8.54776179	     83.47350076	      1.45688743	    -16.47459066	     -4.22022748	      0.00000000	     36.66660491	     11.55000521	    -22.60131186	     30.35054857	      0.52971700	      3.18125672	     -0.57485348	      0.00000000
     22.54666667	     -8.07101377	     10.10224826	      6.04139780	      2.38936631	      1.00068081	      1.04799083	     -5.41033496	    -10.99996089	     -8.74225250	     87.47738586	      1.52676840	    -15.82040903	     -5.39503148	      0.00000000	     36.66430574	     12.11883432	    -21.43292206	     33.14353272	      0.57846377	      4.59282915	     -2.59064516	      0.00000000
     22.55333333	     -8.24626612	     10.32681863	      6.67019237	      2.38745593	      0.99578359	      1.04772927	     -3.28023222	    -11.71066195	     -8.77303931	     91.39169975	      1.59508607	    -15.04598160	     -6.30240207	      0.00000000	     36.60643839	     12.84761175	    -20.09014480	     35.79570617	      0.62475293	      6.27741484	     -4.75560837	      0.00000000
     22.56000000	     -8.44532747	     10.54937699	      7.19504010	      2.38525501	      0.99112832	      1.04746413	     -0.95032325	    -12.49513040	     -8.56668478	     95.17291284	      1.66108069	    -14.18838286	     -7.00190267	      0.00000000	     36.44783541	     13.64058015	    -18.64968837	     38.25597006	      0.66769264	      8.09429149	     -7.01808258	      0.00000000
     22.56666667	     -8.70208477	     10.76673881	      7.64691223	      2.38284936	      0.98676049	      1.04720648	      1.62115102	    -13.31845227	     -8.11724416	     98.78805225	      1.72417677	    -13.26516602	     -7.40039669	      0.00000000	     36.19065275	     14.43131231	    -17.27110803	     40.49160866	      0.70671189	     10.07731514	     -8.93858320	      0.00000000
     22.57333333	     -8.94440470	     10.97524238	      7.99493138	      2.38027561	      0.98291339	      1.04701499	      4.35897218	    -14.14219580	     -7.40742071	    102.17669776	      1.78331979	    -12.33676988	     -7.57169028	      0.00000000	     35.73361325	     15.19212154	    -15.93278882	     42.43859386	      0.74069319	     12.13062481	    -10.59223705	      0.00000000
     22.58000000	     -9.12809376	     11.16725145	      8.23409010	      2.37762630	      0.97971443	      1.04692149	      7.21445549	    -14.91449544	     -6.44906664	    105.29137660	      1.83768120	    -11.42751416	     -7.53653145	      0.00000000	     35.00435297	     15.87004334	    -14.67172202	     44.05761444	      0.76895043	     14.20619113	    -11.87027933	      0.00000000
     22.58666667	     -9.23443502	     11.34231549	      8.40308058	      2.37499404	      0.97720780	      1.04690277	     10.13156817	    -15.61484134	     -5.30627086	    108.07925607	      1.88633887	    -10.53833603	     -7.32175670	      0.00000000	     33.96950807	     16.43450845	    -13.52028511	     45.34900475	      0.79148945	     16.33049894	    -12.66078934	      0.00000000
     22.59333333	     -9.28839294	     11.47316427	      8.48228713	      2.37251459	      0.97542856	      1.04696561	     13.12259138	    -16.18725265	     -4.00133585	    110.50627200	      1.92869829	     -9.67339379	     -6.96836405	      0.00000000	     32.63715469	     16.85445448	    -12.46067209	     46.26786568	      0.80752659	     18.39487044	    -13.01222468	      0.00000000
     22.60000000	     -9.31011722	     11.52906331	      8.46088222	      2.37017010	      0.97431253	      1.04715996	     16.20089342	    -16.55866840	     -2.54860971	    112.55806900	      1.96450890	     -8.80615454	     -6.60578681	      0.00000000	     31.06693747	     17.06728406	    -11.54383179	     46.85409137	      0.81775816	     20.36449804	    -13.05174540	      0.00000000
     22.60666667	     -9.28570396	     11.49612349	      8.36019773	      2.36808722	      0.97391561	      1.04743618	     19.28704604	    -16.71594278	     -1.05741522	    114.19649365	      1.99310481	     -7.95168684	     -6.29561070	      0.00000000	     29.22070849	     17.06620148	    -10.76566428	     47.07120342	      0.82154748	     22.19756554	    -12.67631662	      0.00000000
     22.61333333	     -9.04706394	     11.34403100	      8.24121076	      2.36636396	      0.97441758	      1.04767578	     22.08254510	    -16.63241576	      0.27933323	    115.35903284	      2.01339495	     -7.14408671	     -6.31615371	      0.00000000	     26.93120396	     16.91702954	     -9.87365539	     46.93661948	      0.81919855	     23.76892941	    -12.40788081	      0.00000000
     22.62000000	     -8.89191114	     10.92190575	      8.26308158	      2.36506464	      0.97575500	      1.04764121	     24.84851732	    -16.25922092	      1.24950562	    116.02035584	      2.02493721	     -6.57133254	     -6.42396878	      0.00000000	     24.46038443	     16.54265303	     -8.76591611	     46.30973044	      0.80825727	     24.57196359	    -11.97848386	      0.00000000
     22.62666667	     -9.21038815	     10.74704790	      7.76145319	      2.36389222	      0.97638087	      1.04815535	     28.37093858	    -15.88873812	      2.91370262	    116.56964118	      2.03452405	     -5.31925058	     -6.37090662	      0.00000000	     22.55437381	     15.91488646	     -9.07169559	     45.69114795	      0.79746097	     26.11819901	    -10.15774852	      0.00000000
     22.63333333	     -9.29079064	     10.13561991	      7.77199971	      2.36327264	      0.97837745	      1.04783383	     31.18872800	    -15.27971190	      3.53200204	    116.46269611	      2.03265750	     -4.60550705	     -6.70382109	      0.00000000	     20.11424885	     15.29272149	     -8.08933118	     44.57256409	      0.77793800	     26.55109829	     -9.69829966	      0.00000000
     22.64000000	     -9.35886239	      9.49340398	      7.31189713	      2.36308451	      0.98053940	      1.04823252	     34.00215069	    -14.22400438	      4.42123965	    116.05032996	      2.02546036	     -3.60963659	     -7.88493578	      0.00000000	     17.67436496	     14.19900907	     -8.19682094	     43.36408870	      0.75684612	     26.99011235	     -7.90217120	      0.00000000
     22.64666667	     -9.52278486	      8.68379559	      7.10141864	      2.36331394	      0.98323827	      1.04804192	     36.62942726	    -13.19748333	      4.76094231	    115.20035922	      2.01062557	     -2.88012181	     -9.07545264	      0.00000000	     15.20768283	     13.16345697	     -7.77424138	     41.83184584	      0.73010344	     26.81227817	     -6.87761130	      0.00000000
